<svg width="49" height="49" viewBox="0 0 49 49" fill="none" xmlns="http://www.w3.org/2000/svg">
<path d="M27.2034 45.6558C25.7182 47.6361 23.2878 47.6361 21.8026 45.6558L18.4272 41.1552C18.0446 40.6601 17.2345 40.2551 16.6269 40.2551H15.5018C6.5006 40.2551 2 38.0048 2 26.7533V15.5018C2 6.5006 6.5006 2 15.5018 2H33.5042C42.5054 2 47.006 6.5006 47.006 15.5018V26.7533" stroke="white" stroke-width="3" stroke-miterlimit="10" stroke-linecap="round" stroke-linejoin="round"/>
<path d="M38.4548 45.7233C42.4318 45.7233 45.6557 42.4993 45.6557 38.5224C45.6557 34.5454 42.4318 31.3214 38.4548 31.3214C34.4779 31.3214 31.2538 34.5454 31.2538 38.5224C31.2538 42.4993 34.4779 45.7233 38.4548 45.7233Z" stroke="white" stroke-width="3" stroke-linecap="round" stroke-linejoin="round"/>
<path d="M47.0059 47.0735L44.7556 44.8232" stroke="white" stroke-width="3" stroke-linecap="round" stroke-linejoin="round"/>
<path d="M33.4963 22.3202H33.5165" stroke="white" stroke-width="5" stroke-linecap="round" stroke-linejoin="round"/>
<path d="M24.4928 22.3202H24.513" stroke="white" stroke-width="5" stroke-linecap="round" stroke-linejoin="round"/>
<path d="M15.4894 22.3202H15.5096" stroke="white" stroke-width="5" stroke-linecap="round" stroke-linejoin="round"/>
</svg>
