<svg width="59" height="59" viewBox="0 0 59 59" fill="none" xmlns="http://www.w3.org/2000/svg">
<circle cx="29.5" cy="29.5" r="29.5" fill="#494949"/>
<path d="M40.919 25.2512C40.3306 25.2512 39.8628 25.7189 39.8628 26.3074V28.6913C39.8628 34.0326 35.5174 38.378 30.1761 38.378C24.8349 38.378 20.4894 34.0326 20.4894 28.6913V26.2923C20.4894 25.7039 20.0217 25.2361 19.4333 25.2361C18.8448 25.2361 18.3771 25.7039 18.3771 26.2923V28.6762C18.3771 34.8172 23.0997 39.8718 29.12 40.415V43.6288C29.12 44.2172 29.5877 44.6849 30.1761 44.6849C30.7646 44.6849 31.2323 44.2172 31.2323 43.6288V40.415C37.2375 39.8869 41.9752 34.8172 41.9752 28.6762V26.2923C41.9601 25.7189 41.4924 25.2512 40.919 25.2512Z" fill="white"/>
<path d="M30.1764 14.5082C26.4948 14.5082 23.5073 17.4957 23.5073 21.1773V28.9025C23.5073 32.584 26.4948 35.5715 30.1764 35.5715C33.8579 35.5715 36.8454 32.584 36.8454 28.9025V21.1773C36.8454 17.4957 33.8579 14.5082 30.1764 14.5082ZM32.1529 24.9946C32.0473 25.3869 31.7003 25.6434 31.308 25.6434C31.2325 25.6434 31.1571 25.6283 31.0817 25.6132C30.4932 25.4473 29.8746 25.4473 29.2861 25.6132C28.8033 25.749 28.3356 25.4624 28.2149 24.9946C28.0791 24.5269 28.3658 24.0441 28.8335 23.9233C29.7237 23.6819 30.6592 23.6819 31.5494 23.9233C32.002 24.0441 32.2736 24.5269 32.1529 24.9946ZM32.9526 22.0675C32.8168 22.4296 32.4849 22.6408 32.1227 22.6408C32.0171 22.6408 31.9266 22.6257 31.821 22.5956C30.7648 22.2033 29.5879 22.2033 28.5317 22.5956C28.0791 22.7615 27.5661 22.5201 27.4001 22.0675C27.2341 21.6148 27.4755 21.1018 27.9282 20.9509C29.3767 20.4229 30.976 20.4229 32.4245 20.9509C32.8772 21.1169 33.1186 21.6148 32.9526 22.0675Z" fill="white"/>
</svg>
